HIERARCHY
ROOT SpineBase
{
  OFFSET 0.000000 0.000000 0.000000
  CHANNELS 6 Xposition Yposition Zposition Zrotation Xrotation Yrotation
  JOINT SpineMid
  {
    OFFSET 0.000000 29.174191 0.000000
    CHANNELS 3 Zrotation Xrotation Yrotation
    JOINT SpineShoulder
    {
      OFFSET -0.062588 21.654581 -0.753441
      CHANNELS 3 Zrotation Xrotation Yrotation
      JOINT Neck
      {
        OFFSET -0.050626 7.158398 -0.562233
        CHANNELS 3 Zrotation Xrotation Yrotation
        JOINT Head
        {
          OFFSET -1.367452 11.747766 -0.034418
          CHANNELS 3 Zrotation Xrotation Yrotation
          End Site
          {
            OFFSET 0 0 0
          }
        }
      }
      JOINT ShoulderLeft
      {
        OFFSET -16.212812 -1.999553 4.806455
        CHANNELS 3 Zrotation Xrotation Yrotation
        JOINT ElbowLeft
        {
          OFFSET -3.885931 -26.428786 3.564522
          CHANNELS 3 Zrotation Xrotation Yrotation
          JOINT WristLeft
          {
            OFFSET -3.856168 -20.494023 -3.552454
            CHANNELS 3 Zrotation Xrotation Yrotation
            JOINT HandLeft
            {
              OFFSET 0.026136 -6.491897 -2.267474
              CHANNELS 3 Zrotation Xrotation Yrotation
              JOINT HandTipLeft
              {
                OFFSET -1.320511 -6.354035 -1.180576
                CHANNELS 3 Zrotation Xrotation Yrotation
                End Site
                {
                  OFFSET 0 0 0
                }
              }
              JOINT ThumbLeft
              {
                OFFSET -2.343063 -1.076513 -1.493992
                CHANNELS 3 Zrotation Xrotation Yrotation
                End Site
                {
                  OFFSET 0 0 0
                }
              }
            }
          }
        }
      }
      JOINT ShoulderRight
      {
        OFFSET 14.874536 -2.654168 -6.007455
        CHANNELS 3 Zrotation Xrotation Yrotation
        JOINT ElbowRight
        {
          OFFSET 5.731789 -24.214915 -3.116335
          CHANNELS 3 Zrotation Xrotation Yrotation
          JOINT WristRight
          {
            OFFSET -0.238179 -20.249256 -4.670615
            CHANNELS 3 Zrotation Xrotation Yrotation
            JOINT HandRight
            {
              OFFSET -1.295828 -7.757690 -0.941403
              CHANNELS 3 Zrotation Xrotation Yrotation
              JOINT HandTipRight
              {
                OFFSET -1.285717 -5.729990 -2.422414
                CHANNELS 3 Zrotation Xrotation Yrotation
                End Site
                {
                  OFFSET 0 0 0
                }
              }
              JOINT ThumbRight
              {
                OFFSET -3.809101 0.017054 -0.803395
                CHANNELS 3 Zrotation Xrotation Yrotation
                End Site
                {
                  OFFSET 0 0 0
                }
              }
            }
          }
        }
      }
    }
  }
  JOINT HipLeft
  {
    OFFSET -5.952311 0.479467 -1.848705
    CHANNELS 3 Zrotation Xrotation Yrotation
    JOINT KneeLeft
    {
      OFFSET -8.800265 -28.586921 2.299700
      CHANNELS 3 Zrotation Xrotation Yrotation
      JOINT AnkleLeft
      {
        OFFSET -3.049491 -36.950150 5.973656
        CHANNELS 3 Zrotation Xrotation Yrotation
        JOINT FootLeft
        {
          OFFSET -3.115537 -3.946251 -12.551902
          CHANNELS 3 Zrotation Xrotation Yrotation
          End Site
          {
            OFFSET 0 0 0
          }
        }
      }
    }
  }
  JOINT HipRight
  {
    OFFSET 5.313362 0.655276 -5.032409
    CHANNELS 3 Zrotation Xrotation Yrotation
    JOINT KneeRight
    {
      OFFSET 5.568281 -26.955471 1.309774
      CHANNELS 3 Zrotation Xrotation Yrotation
      JOINT AnkleRight
      {
        OFFSET 1.626048 -34.536853 9.918979
        CHANNELS 3 Zrotation Xrotation Yrotation
        JOINT FootRight
        {
          OFFSET -3.918668 -3.352884 -13.592227
          CHANNELS 3 Zrotation Xrotation Yrotation
          End Site
          {
            OFFSET 0 0 0
          }
        }
      }
    }
  }
}
MOTION
Frames: 16
Frame Time: 0.033333
35.867189 74.515144 383.494608 -0.000000 0.000000 15.780409 -0.000000 -0.000000 -15.780409 -0.000000 0.000000 0.000000 -0.000000 0.000000 0.000000 0.000000 0.000000 0.000000 -0.000000 0.000000 0.000000 -0.000000 0.000000 0.000000 -0.000000 0.000000 0.000000 -0.000000 0.000000 0.000000 0.000000 0.000000 0.000000 0.000000 0.000000 0.000000 -0.000000 0.000000 0.000000 -0.000000 0.000000 0.000000 -0.000000 0.000000 0.000000 -0.000000 0.000000 0.000000 0.000000 0.000000 0.000000 0.000000 0.000000 0.000000 -0.000000 -0.000000 -15.780409 -0.000000 0.000000 0.000000 -0.000000 0.000000 0.000000 0.000000 0.000000 0.000000 -0.000000 -0.000000 -15.780409 -0.000000 0.000000 0.000000 -0.000000 0.000000 0.000000 0.000000 0.000000 0.000000
35.860556 74.501657 383.449314 0.034053 -0.041642 15.761765 -0.021461 0.049326 -15.761743 -0.000000 0.000000 0.000000 -0.000000 0.000000 0.000000 0.000000 0.000000 0.000000 -0.000000 0.000000 0.000000 -0.000000 0.000000 0.000000 1.229232 -3.435328 -0.410612 -1.256050 3.425624 0.485037 0.000000 0.000000 0.000000 0.000000 0.000000 0.000000 -0.000000 0.000000 0.000000 -0.000000 0.000000 0.000000 -0.000000 0.000000 0.000000 1.846812 -4.710593 0.360284 0.000000 0.000000 0.000000 0.000000 0.000000 0.000000 -0.021461 0.049326 -15.761743 -0.000000 0.000000 0.000000 -0.000000 0.000000 0.000000 0.000000 0.000000 0.000000 -0.021461 0.049326 -15.761743 -0.000000 0.000000 0.000000 0.860349 -2.424341 -0.702144 0.000000 0.000000 0.000000
35.853298 74.489178 383.406954 0.060680 -0.083223 15.751225 -0.035809 0.096570 -15.751151 -0.000000 0.000000 0.000000 -0.000000 0.000000 0.000000 0.000000 0.000000 0.000000 -0.000000 0.000000 0.000000 -0.594773 1.131223 -0.103609 2.736648 -7.088915 -0.508732 -0.848768 5.561013 0.587836 0.000000 0.000000 0.000000 0.000000 0.000000 0.000000 -0.000000 0.000000 0.000000 -0.000000 0.000000 0.000000 -1.134740 -0.096539 0.152639 4.571042 -8.389902 0.564175 0.000000 0.000000 0.000000 0.000000 0.000000 0.000000 -0.035809 0.096570 -15.751151 -0.000000 0.000000 0.000000 -0.000000 0.000000 0.000000 0.000000 0.000000 0.000000 -0.035809 0.096570 -15.751151 0.247368 0.764576 0.105583 1.386391 -5.492794 -1.390853 0.000000 0.000000 0.000000
35.845414 74.477706 383.367528 0.079874 -0.124737 15.748944 -0.043019 0.141734 -15.748804 -0.000000 0.000000 0.000000 -0.000000 0.000000 0.000000 0.000000 0.000000 0.000000 -0.000000 0.000000 0.000000 -0.687966 1.422407 -0.139403 3.432804 -9.040119 -0.589484 -0.910760 7.492024 0.600276 0.000000 0.000000 0.000000 0.000000 0.000000 0.000000 -0.000000 0.000000 0.000000 -0.000000 0.000000 0.000000 -1.678457 0.021650 0.199904 6.435904 -11.274941 0.823138 0.000000 0.000000 0.000000 0.000000 0.000000 0.000000 -0.043019 0.141734 -15.748804 -0.000000 0.000000 0.000000 -0.000000 0.000000 0.000000 0.000000 0.000000 0.000000 -0.043019 0.141734 -15.748804 0.311273 1.100696 0.138596 2.002544 -7.930274 -1.889086 0.000000 0.000000 0.000000
35.836905 74.467242 383.331035 0.091630 -0.166182 15.755061 -0.043065 0.184818 -15.754859 -0.000000 0.000000 0.000000 0.284876 -0.901963 -0.101883 0.000000 0.000000 0.000000 -0.000000 0.000000 0.000000 -0.645550 1.530389 -0.166889 3.701469 -9.983902 -0.617638 -0.738887 8.912962 0.429101 0.000000 0.000000 0.000000 0.000000 0.000000 0.000000 -0.000000 0.000000 0.000000 -0.000000 0.000000 0.000000 -2.208738 0.252084 0.230015 7.990905 -13.260381 0.995560 0.000000 0.000000 0.000000 0.000000 0.000000 0.000000 -0.043065 0.184818 -15.754859 -0.000000 0.000000 0.000000 -0.000000 0.000000 0.000000 0.000000 0.000000 0.000000 -0.043065 0.184818 -15.754859 0.339402 1.414695 0.160442 2.544703 -10.066235 -2.242989 0.000000 0.000000 0.000000
35.827771 74.457785 383.297477 0.095946 -0.207551 15.769699 -0.035929 0.225814 -15.769454 -0.000000 0.000000 0.000000 0.431997 -1.059903 -0.118061 0.000000 0.000000 0.000000 -0.000000 0.000000 0.000000 -0.468276 1.455682 -0.186242 3.548851 -9.943545 -0.612582 -0.333756 9.843832 0.084626 0.000000 0.000000 0.000000 0.000000 0.000000 0.000000 -0.000000 0.000000 0.000000 0.465382 -0.760400 -0.095462 -3.195458 1.350445 0.382124 9.227375 -14.368385 1.045866 0.000000 0.000000 0.000000 0.000000 0.000000 0.000000 -0.035929 0.225814 -15.769454 -0.000000 0.000000 0.000000 -0.000000 0.000000 0.000000 0.000000 0.000000 0.000000 -0.369075 -0.536430 -15.946083 0.439114 2.537256 0.342322 2.999045 -11.836334 -2.447016 0.000000 0.000000 0.000000
35.817374 74.449825 383.271166 0.090613 -0.267393 15.849191 -0.014142 0.281974 -15.848945 -0.000000 0.000000 0.000000 0.649610 -1.137551 -0.123979 0.000000 0.000000 0.000000 -0.497099 -0.752750 0.040309 0.427016 2.020459 -0.270855 2.676742 -8.779590 -0.488252 2.260292 10.282981 -1.137255 0.000000 0.000000 0.000000 0.000000 0.000000 0.000000 -0.000000 0.000000 0.000000 0.516788 -1.061378 -0.102153 -3.785383 1.961694 0.440584 10.449301 -14.077859 0.686278 0.000000 0.000000 0.000000 0.000000 0.000000 0.000000 -0.014142 0.281974 -15.848945 -0.000000 0.000000 0.000000 -0.000000 0.000000 0.000000 0.000000 0.000000 0.000000 -0.504251 -0.797258 -16.101815 0.204658 3.508447 0.370641 4.128217 -15.156687 -2.678672 0.000000 0.000000 0.000000
35.803752 74.444578 383.247704 0.073404 -0.304232 15.899724 0.012750 0.312702 -15.899564 -0.000000 0.000000 0.000000 0.946812 -1.267620 -0.134176 0.000000 0.000000 0.000000 -0.598739 -0.888821 0.045209 0.599512 0.888300 -0.054501 2.590636 -5.184429 -0.821486 2.641610 8.731097 -1.313062 0.000000 0.000000 0.000000 0.000000 0.000000 0.000000 -0.000000 0.000000 0.000000 0.575894 -1.379545 -0.109985 -4.237352 2.881567 0.448706 10.662030 -15.280870 1.098140 0.000000 0.000000 0.000000 0.000000 0.000000 0.000000 0.012750 0.312702 -15.899564 -0.000000 0.000000 0.000000 -0.000000 0.000000 0.000000 0.000000 0.000000 0.000000 -0.524760 -0.995936 -16.200793 0.111215 4.083751 0.417494 3.803222 -14.053628 -2.743781 0.000000 0.000000 0.000000
35.794930 74.435657 383.218497 0.056703 -0.337867 15.877398 0.037893 0.340490 -15.877343 -0.000000 0.000000 0.000000 1.192616 -1.400358 -0.144761 0.000000 0.000000 0.000000 -0.681751 -0.945339 0.041343 0.682526 0.944780 -0.052595 1.809454 -2.400262 -0.608215 3.851622 8.804497 -2.261972 0.000000 0.000000 0.000000 0.000000 0.000000 0.000000 0.767745 -0.315623 -0.171190 -0.116258 -1.319539 0.050602 -5.247132 4.137966 0.504345 11.854382 -12.743553 0.179973 0.000000 0.000000 0.000000 0.000000 0.000000 0.000000 0.037893 0.340490 -15.877343 -0.000000 0.000000 0.000000 -0.000000 0.000000 0.000000 0.000000 0.000000 0.000000 -0.515655 -1.143100 -16.213301 0.075567 4.371431 0.457656 4.831595 -17.816508 -2.491564 0.000000 0.000000 0.000000
35.787769 74.431266 383.191186 0.038644 -0.370855 15.899399 0.064430 0.367254 -15.899480 -0.000000 0.000000 0.000000 1.392604 -1.508811 -0.152996 0.000000 0.000000 0.000000 -0.702027 -0.913954 0.034033 1.949219 -0.032110 -0.093469 -1.248112 0.943536 0.048925 4.822506 8.755169 -3.071462 0.000000 0.000000 0.000000 0.000000 0.000000 0.000000 0.776711 -0.419653 -0.196228 0.039904 -1.328247 0.041102 -6.132116 5.116560 0.571043 11.584574 -10.578432 -0.188744 0.000000 0.000000 0.000000 0.000000 0.000000 0.000000 0.064430 0.367254 -15.899480 -0.000000 0.000000 0.000000 -0.000000 0.000000 0.000000 0.000000 0.000000 0.000000 -0.393880 -1.270680 -16.253816 -0.131289 4.485184 0.461533 5.312813 -19.335057 -1.921813 0.000000 0.000000 0.000000
35.787326 74.424727 383.161045 0.027888 -0.408116 15.926402 0.085171 0.400103 -15.926600 -0.000000 0.000000 0.000000 1.513210 -1.579393 -0.158312 0.000000 0.000000 0.000000 -0.677237 -0.800053 0.021528 2.438404 -0.404530 -0.116407 -1.795730 2.533563 0.114646 2.929737 7.714483 -2.576510 0.000000 0.000000 0.000000 0.000000 0.000000 0.000000 0.759887 -0.474524 -0.206756 0.169379 -1.299883 0.026721 -6.568342 6.090843 0.546716 11.605361 -7.597509 -0.924395 0.000000 0.000000 0.000000 0.000000 0.000000 0.000000 0.085171 0.400103 -15.926600 -0.000000 0.000000 0.000000 -0.000000 0.000000 0.000000 0.000000 0.000000 0.000000 -0.209810 -1.238236 -16.262549 -0.154440 4.018387 0.457320 4.134397 -15.663864 -1.538497 0.000000 0.000000 0.000000
35.791414 74.404180 383.136575 0.023331 -0.440153 15.941937 0.098462 0.429633 -15.942217 -0.000000 0.000000 0.000000 1.633727 -1.603680 -0.158759 0.000000 0.000000 0.000000 -0.568119 -0.599301 0.008511 2.656617 -0.583476 -0.155147 -2.225208 2.038135 0.214655 0.938194 8.649525 -2.202917 0.000000 0.000000 0.000000 0.000000 0.000000 0.000000 0.729424 -0.523808 -0.214332 0.197396 -1.500910 0.039542 -6.803368 7.773311 0.449368 11.832399 -7.774078 -0.805054 0.000000 0.000000 0.000000 0.000000 0.000000 0.000000 0.098462 0.429633 -15.942217 -0.000000 0.000000 0.000000 -0.000000 0.000000 0.000000 0.000000 0.000000 0.000000 0.089459 -1.164553 -16.238177 -0.199117 3.643729 0.462677 2.864097 -12.558175 -0.331427 0.000000 0.000000 0.000000
35.791640 74.388352 383.118764 0.011481 -0.450669 16.052177 0.113585 0.436272 -16.052564 -0.000000 0.000000 0.000000 1.709094 -1.673431 -0.164540 0.000000 0.000000 0.000000 -0.000000 0.000000 0.000000 2.267569 -0.931603 -0.200410 -1.706039 0.150463 0.032004 0.998436 7.325425 -1.549793 0.000000 0.000000 0.000000 0.000000 0.000000 0.000000 0.672921 -0.577226 -0.219683 0.332623 -1.439523 0.026324 -7.127113 8.171568 0.471260 11.531949 -6.663390 -0.940362 0.000000 0.000000 0.000000 0.000000 0.000000 0.000000 0.113585 0.436272 -16.052564 -0.000000 0.000000 0.000000 -0.000000 0.000000 0.000000 0.000000 0.000000 0.000000 0.308539 -1.017963 -16.300097 -0.271722 3.285733 0.430137 2.168205 -11.118892 0.991172 0.000000 0.000000 0.000000
35.789837 74.372626 383.085445 -0.003014 -0.474497 16.164022 0.134993 0.454900 -16.164571 -0.000000 0.000000 0.000000 1.773560 -1.675964 -0.163656 0.000000 0.000000 0.000000 -0.000000 0.000000 0.000000 2.378901 -0.281088 -0.355232 0.065528 -2.716209 -0.448444 0.439768 7.714720 -0.868097 0.000000 0.000000 0.000000 0.000000 0.000000 0.000000 0.586028 -0.671823 -0.230904 0.244712 -1.168273 0.071924 -7.622703 9.178328 0.421432 12.925627 -8.209745 -0.691455 0.000000 0.000000 0.000000 0.000000 0.000000 0.000000 0.134993 0.454900 -16.164571 -0.000000 0.000000 0.000000 -0.199271 -0.226546 0.816287 0.000000 0.000000 0.000000 0.365881 -0.924584 -16.394245 -0.335652 3.021225 0.391793 3.462575 -14.487034 0.133292 0.000000 0.000000 0.000000
35.790548 74.365333 383.036640 -0.009374 -0.480920 16.242126 0.143515 0.459104 -16.242741 -0.000000 0.000000 0.000000 1.799454 -1.662599 -0.161854 0.000000 0.000000 0.000000 -0.000000 0.000000 0.000000 3.267255 0.239105 -0.621416 -1.898958 -4.003113 0.174715 2.127510 7.418643 -1.223095 0.000000 0.000000 0.000000 0.000000 0.000000 0.000000 0.505487 -0.777737 -0.245678 0.245850 -0.660697 0.095629 -8.829510 9.558280 0.549085 13.960487 -8.305951 -0.606951 0.000000 0.000000 0.000000 0.000000 0.000000 0.000000 0.143515 0.459104 -16.242741 -0.000000 0.000000 0.000000 -0.210150 -0.231967 0.855392 0.000000 0.000000 0.000000 0.320601 -0.767164 -16.450025 -0.322947 2.809514 0.343499 6.846816 -24.569574 0.395413 0.000000 0.000000 0.000000
35.787849 74.354772 382.985500 -0.016498 -0.485962 16.312522 0.152333 0.461765 -16.313206 -0.000000 0.000000 0.000000 1.815515 -1.632777 -0.158579 0.000000 0.000000 0.000000 -0.000000 0.000000 0.000000 3.400041 1.152194 -0.843768 -3.820787 -2.794114 0.913349 4.846738 7.100868 -2.450794 0.000000 0.000000 0.000000 0.000000 0.000000 0.000000 0.402036 -0.789661 -0.235902 0.116285 -0.478846 0.135617 -9.764208 12.151114 0.481219 13.316036 -11.440797 0.880442 0.000000 0.000000 0.000000 0.000000 0.000000 0.000000 0.415380 -0.319019 -16.067447 -0.468890 0.677472 -0.243314 -0.207187 -0.227573 0.842362 0.000000 0.000000 0.000000 0.152333 0.461765 -16.313206 0.311344 1.024473 0.135199 8.064073 -27.893116 0.293891 0.000000 0.000000 0.000000
